<svg xmlns="http://www.w3.org/2000/svg" viewBox="-28.68 38.12 357.2 196.16" width="357.2" height="196.16" style="display: block; max-width: 100%; height: auto; overflow: visible;">
  <!-- 
    FIXED: Replaced conflicting <animate> tags with robust KeyTimes/Values logic.
    Each path now has a single self-contained animation loop.
    Duration: 3.6s
    Cycle: Draw -> Wait -> Undraw -> Wait -> Repeat
  -->
  
  <g transform="translate(0, 0)">
  
    <!-- Path 1 (L=251) Draw:0s Undraw:3.1s -->
    <path
      d="M16.12 156L16.12 156Q11.32 156 11.32 153.36L11.32 153.36Q11.32 151.44 13.36 149.40L13.36 149.40Q14.92 147.84 16.84 146.88Q18.76 145.92 19.24 145.92L19.24 145.92Q19.84 145.92 19.90 146.40Q19.96 146.88 19.36 147.12L19.36 147.12Q18.16 147.84 16.66 149.10Q15.16 150.36 15.16 151.80L15.16 151.80Q15.16 153.72 17.44 153.72L17.44 153.72Q20.20 153.72 23.20 152.10Q26.20 150.48 28.78 147.96Q31.36 145.44 32.98 142.86Q34.60 140.28 34.60 138.36L34.60 138.36Q34.60 136.80 33.52 135.48Q32.44 134.16 29.08 132.36L29.08 132.36Q26.80 131.04 24.70 129.60Q22.60 128.16 21.52 126.12L21.52 126.12Q20.56 127.80 19.06 130.14Q17.56 132.48 15.52 135L15.52 135Q14.80 135.72 14.08 135.72L14.08 135.72Q13.36 135.72 13.36 135.12L13.36 135.12Q13.36 134.76 13.96 133.92L13.96 133.92Q17.20 130.08 18.76 126.84Q20.32 123.60 20.92 121.92L20.92 121.92Q21.40 118.44 24.16 115.32Q26.92 112.20 30.88 109.86Q34.84 107.52 38.98 106.20Q43.12 104.88 46.36 104.88L46.36 104.88Q49.60 104.88 52.12 106.08Q54.64 107.28 54.64 109.92L54.64 109.92Q54.64 111.36 53.80 113.04L53.80 113.04Q52.72 115.32 50.20 117.12L50.20 117.12Q50.08 117.24 49.84 117.24L49.84 117.24Q48.88 117.24 48.88 116.40L48.88 116.40Q48.88 115.80 49.48 115.20L49.48 115.20Q50.44 114.36 51.04 113.16Q51.64 111.96 51.64 110.88L51.64 110.88Q51.64 108.72 49.12 108.72L49.12 108.72Q46.48 108.72 42.22 110.16Q37.96 111.60 34.36 113.88L34.36 113.88Q30.28 116.52 27.52 119.64Q24.76 122.76 24.76 125.16L24.76 125.16Q24.76 126.36 25.54 127.38Q26.32 128.40 28.60 129.72L28.60 129.72Q34.12 132.72 35.68 133.68L35.68 133.68Q40.60 136.68 40.60 140.04L40.60 140.04Q40.60 142.80 38.20 145.62Q35.80 148.44 32.02 150.78Q28.24 153.12 24.04 154.56Q19.84 156 16.12 156Z"
      fill="#fefbfb"
      stroke="#ffffff"
      stroke-width="2"
      stroke-linecap="round"
      stroke-linejoin="round"
      class="sig-path"
      stroke-dasharray="251"
      stroke-dashoffset="251"
      fill-opacity="0"
    >
      <!-- Stroke Animation: Draw 0-0.169s, Undraw 3.1-3.269s -->
      <animate 
        attributeName="stroke-dashoffset" 
        values="251; 0; 0; 251; 251"
        keyTimes="0; 0.047; 0.861; 0.908; 1"
        dur="3.6s" 
        repeatCount="indefinite"
        calcMode="linear"
      />
      <!-- Fill Opacity: Fade In 0.1-0.4s, Fade Out 2.7-3.0s -->
      <animate 
        attributeName="fill-opacity" 
        values="0; 0; 1; 1; 0; 0"
        keyTimes="0; 0.028; 0.111; 0.750; 0.833; 1"
        dur="3.6s" 
        repeatCount="indefinite" 
      />
    </path>

    <!-- Path 2 (L=222) Draw:0.169s Undraw:2.95s -->
    <path
      d="M59.68 151.32L59.68 151.32Q56.32 151.32 53.80 149.76L53.80 149.76Q49.60 147.24 49.60 140.64L49.60 140.64Q49.60 137.88 50.56 134.28L50.56 134.28Q51.40 131.28 53.56 127.74Q55.72 124.20 58.66 120.96Q61.60 117.72 65.08 115.68Q68.56 113.64 72.04 113.64L72.04 113.64Q73.48 113.64 74.56 114L74.56 114Q76 114.48 77.02 115.74Q78.04 117 78.04 118.92L78.04 118.92Q78.04 120.96 77.02 121.20Q76 121.44 76 120.72L76 120.72Q76 120.48 76.06 120.24Q76.12 120 76.12 119.88L76.12 119.88Q76.12 118.92 75.58 118.14Q75.04 117.36 73.60 117.36L73.60 117.36Q71.68 117.36 68.86 119.40Q66.04 121.44 63.10 124.86Q60.16 128.28 57.94 132.36Q55.72 136.44 55 140.52L55 140.52Q54.88 141.12 54.82 141.66Q54.76 142.20 54.76 142.80L54.76 142.80Q54.76 145.56 56.02 147.42Q57.28 149.28 60.04 149.28L60.04 149.28Q63.40 149.28 66.52 146.70Q69.64 144.12 72.10 140.52Q74.56 136.92 75.76 134.16L75.76 134.16Q76.72 132 77.08 130.44Q77.44 128.88 77.44 127.80L77.44 127.80Q77.44 126.84 77.26 126.12Q77.08 125.40 76.84 124.92L76.84 124.92Q76.60 124.20 76.60 123.84L76.60 123.84Q76.60 122.88 77.38 122.28Q78.16 121.68 79 121.68L79 121.68Q79.72 121.68 80.56 122.16L80.56 122.16Q81.52 122.40 83.20 122.52Q84.88 122.64 86.80 122.64L86.80 122.64Q88.84 122.64 90.94 122.52Q93.04 122.40 94.60 122.04L94.60 122.04Q94.84 121.92 95.32 121.92L95.32 121.92Q96.16 121.92 96.16 122.40L96.16 122.40Q96.16 122.88 95.32 123.24L95.32 123.24Q91.12 125.16 87.82 125.28Q84.52 125.40 82.12 125.40L82.12 125.40Q82.36 128.40 80.80 131.82Q79.24 135.24 77.56 137.88L77.56 137.88Q75.52 140.88 72.88 144Q70.24 147.12 67 149.22Q63.76 151.32 59.68 151.32Z"
      fill="#fefbfb"
      stroke="#ffffff"
      stroke-width="2"
      stroke-linecap="round"
      stroke-linejoin="round"
      class="sig-path"
      stroke-dasharray="222"
      stroke-dashoffset="222"
      fill-opacity="0"
    >
      <animate 
        attributeName="stroke-dashoffset" 
        values="222; 222; 0; 0; 222; 222"
        keyTimes="0; 0.047; 0.094; 0.819; 0.866; 1"
        dur="3.6s" 
        repeatCount="indefinite" 
      />
       <animate 
        attributeName="fill-opacity" 
        values="0; 0; 1; 1; 0; 0"
        keyTimes="0; 0.075; 0.158; 0.778; 0.861; 1"
        dur="3.6s" 
        repeatCount="indefinite" 
      />
    </path>

    <!-- Path 3 (L=246) Draw:0.339s Undraw:2.80s -->
    <path
      d="M97.84 151.20L97.84 151.20Q95.68 151.20 93.94 150.24Q92.20 149.28 91.36 146.64L91.36 146.64Q91.24 146.28 91.18 145.92Q91.12 145.56 91.12 145.08L91.12 145.08Q91.12 142.68 92.20 139.08Q93.28 135.48 94.84 132.12L94.84 132.12Q94.12 133.08 93.16 134.46Q92.20 135.84 90.40 138L90.40 138Q89.92 138.48 89.32 138.48L89.32 138.48Q88.48 138.48 88.48 137.52L88.48 137.52Q88.48 136.80 88.96 136.32L88.96 136.32Q92.08 132.36 94.54 129.24Q97 126.12 98.20 123.96L98.20 123.96Q98.20 123.72 98.92 122.46Q99.64 121.20 100.84 118.92L100.84 118.92Q99.88 119.04 99.22 119.10Q98.56 119.16 98.08 119.16L98.08 119.16Q97.24 119.16 96.64 118.44Q96.04 117.72 96.52 116.64L96.52 116.64Q97.12 114.96 99.16 114.72Q101.20 114.48 102.76 114.36L102.76 114.36Q102.88 114.12 103.24 114.12L103.24 114.12Q104.68 111.48 106 108.96Q107.32 106.44 108.22 104.76Q109.12 103.08 109.12 102.96L109.12 102.96Q111.52 99.12 112.24 97.86Q112.96 96.60 114.16 96.36L114.16 96.36Q115.48 96.24 116.98 96.48Q118.48 96.72 118.96 97.56L118.96 97.56Q119.32 98.04 119.32 98.76L119.32 98.76Q119.32 99.84 118.84 100.86Q118.36 101.88 117.88 102.48L117.88 102.48Q117.40 103.32 116.62 103.62Q115.84 103.92 115.24 105.12L115.24 105.12Q114.04 107.40 112.60 110.04Q111.16 112.68 109.60 115.08L109.60 115.08L111.04 114.96Q113.92 114.72 116.50 114.36Q119.08 114 122.44 114.12L122.44 114.12Q123.04 114.12 123.70 114.30Q124.36 114.48 124.36 114.84L124.36 114.84Q124.36 115.32 121.24 116.16L121.24 116.16Q120.04 116.64 116.02 117.18Q112 117.72 107.80 118.20L107.80 118.20Q106.60 120.48 105.64 121.98Q104.68 123.48 104.32 124.20L104.32 124.20Q101.68 129.72 99.58 134.22Q97.48 138.72 97.24 141.60L97.24 141.60Q97.12 142.08 97.12 142.50Q97.12 142.92 97.12 143.40L97.12 143.40Q97.12 148.20 100.24 148.20L100.24 148.20Q102.16 148.20 105.16 146.10Q108.16 144 111.28 140.94Q114.40 137.88 116.98 135.06Q119.56 132.24 120.52 130.80L120.52 130.80Q120.88 130.44 121.24 130.44L121.24 130.44Q121.72 130.44 122.02 130.80Q122.32 131.16 122.08 131.76L122.08 131.76Q121 133.80 118.42 136.86Q115.84 139.92 112.66 142.98Q109.48 146.04 106.48 148.20L106.48 148.20Q104.92 149.40 102.58 150.30Q100.24 151.20 97.84 151.20Z"
      fill="#fefbfb"
      stroke="#ffffff"
      stroke-width="2"
      stroke-linecap="round"
      stroke-linejoin="round"
      class="sig-path"
      stroke-dasharray="246"
      stroke-dashoffset="246"
      fill-opacity="0"
    >
      <animate 
        attributeName="stroke-dashoffset" 
        values="246; 246; 0; 0; 246; 246"
        keyTimes="0; 0.094; 0.141; 0.777; 0.825; 1"
        dur="3.6s" 
        repeatCount="indefinite" 
      />
      <animate 
        attributeName="fill-opacity" 
        values="0; 0; 1; 1; 0; 0"
        keyTimes="0; 0.122; 0.205; 0.814; 0.897; 1"
        dur="3.6s" 
        repeatCount="indefinite" 
      />
    </path>

    <!-- Path 4 (L=319) Draw:0.508s Undraw:2.65s -->
    <path
      d="M152.56 151.20L152.56 151.20Q150.52 151.20 148.78 150.24Q147.04 149.28 146.20 146.64L146.20 146.64Q145.84 145.56 145.84 143.64L145.84 143.64Q145.84 141 146.56 137.76Q147.28 134.52 148.12 132.24L148.12 132.24Q147.52 132.48 145.90 134.34Q144.28 136.20 141.94 138.78Q139.60 141.36 136.78 143.94Q133.96 146.52 130.96 148.20Q127.96 149.88 125.08 149.88L125.08 149.88Q123.16 149.88 121 148.74Q118.84 147.60 117.52 145.80L117.52 145.80Q115.72 143.40 115.72 140.88L115.72 140.88Q115.72 137.64 117.94 134.16Q120.16 130.68 123.70 127.38Q127.24 124.08 131.26 121.38Q135.28 118.68 138.94 116.82Q142.60 114.96 144.88 114.36L144.88 114.36Q147.28 113.64 150.28 113.64L150.28 113.64Q151.96 113.64 153.76 114.06Q155.56 114.48 156.76 115.44L156.76 115.44Q157.72 115.92 158.32 116.76Q158.92 117.60 158.92 118.56L158.92 118.56Q158.92 119.52 158.08 119.16L158.08 119.16Q157.12 117.72 155.50 117.30Q153.88 116.88 152.20 116.88L152.20 116.88Q147.40 116.88 141.64 120Q135.88 123.12 131.32 127.32L131.32 127.32Q129.88 128.52 127.42 131.46Q124.96 134.40 122.92 137.88Q120.88 141.36 120.88 144.24L120.88 144.24Q120.88 145.80 121.72 147L121.72 147Q122.20 147.84 123.28 147.84L123.28 147.84Q124.96 147.84 127.78 146.04Q130.60 144.24 133.60 141.66Q136.60 139.08 139.06 136.68Q141.52 134.28 142.60 133.20L142.60 133.20Q143.20 132.60 144.94 130.74Q146.68 128.88 148.72 126.72Q150.76 124.56 152.38 123Q154 121.44 154.48 121.44L154.48 121.44Q155.08 121.44 156.46 121.74Q157.84 122.04 158.80 122.64Q159.76 123.24 159.16 124.20L159.16 124.20Q156.04 128.76 154.18 133.74Q152.32 138.72 151.96 141.60L151.96 141.60Q151.84 142.08 151.84 142.50Q151.84 142.92 151.84 143.40L151.84 143.40Q151.84 148.20 155.20 148.20L155.20 148.20Q157 148.20 160 146.04Q163 143.88 166.12 140.88Q169.24 137.88 171.82 135.06Q174.40 132.24 175.36 130.80L175.36 130.80Q175.72 130.44 176.08 130.44L176.08 130.44Q176.56 130.44 176.92 130.86Q177.28 131.28 176.92 131.88L176.92 131.88Q175.60 134.04 173.08 137.04Q170.56 140.04 167.44 143.04Q164.32 146.04 161.32 148.20L161.32 148.20Q159.76 149.40 157.36 150.30Q154.96 151.20 152.56 151.20Z"
      fill="#fefbfb"
      stroke="#ffffff"
      stroke-width="2"
      stroke-linecap="round"
      stroke-linejoin="round"
      class="sig-path"
      stroke-dasharray="319"
      stroke-dashoffset="319"
      fill-opacity="0"
    >
      <animate 
        attributeName="stroke-dashoffset" 
        values="319; 319; 0; 0; 319; 319"
        keyTimes="0; 0.141; 0.188; 0.736; 0.783; 1"
        dur="3.6s" 
        repeatCount="indefinite" 
      />
      <animate 
        attributeName="fill-opacity" 
        values="0; 0; 1; 1; 0; 0"
        keyTimes="0; 0.169; 0.252; 0.767; 0.850; 1"
        dur="3.6s" 
        repeatCount="indefinite" 
      />
    </path>

    <!-- Path 5 (L=194) Draw:0.677s Undraw:2.50s -->
    <path
      d="M192.40 108.24L192.40 108.24Q190.84 108.24 189.16 107.94Q187.48 107.64 187.48 105.72L187.48 105.72Q187.48 105.36 189.10 104.04Q190.72 102.72 192.46 101.34Q194.20 99.96 194.56 99.72L194.56 99.72Q196.60 98.04 197.08 98.04L197.08 98.04Q197.68 98.04 197.08 99.60Q196.48 101.16 196.48 102.36L196.48 102.36Q196.48 102.96 195.76 104.40Q195.04 105.84 194.08 107.04Q193.12 108.24 192.40 108.24ZM179.32 151.20L179.32 151.20Q177.16 151.20 175.42 150.24Q173.68 149.28 172.84 146.64L172.84 146.64Q172.72 146.28 172.66 145.92Q172.60 145.56 172.60 145.08L172.60 145.08Q172.60 142.68 173.68 139.08Q174.76 135.48 176.32 132.12L176.32 132.12Q175.60 133.08 174.64 134.46Q173.68 135.84 171.88 138L171.88 138Q171.40 138.48 170.80 138.48L170.80 138.48Q169.96 138.48 169.96 137.52L169.96 137.52Q169.96 136.80 170.44 136.32L170.44 136.32Q173.56 132.36 176.02 129.24Q178.48 126.12 179.68 123.96L179.68 123.96Q179.68 123.84 179.62 123.78Q179.56 123.72 179.56 123.60L179.56 123.60Q179.56 123.24 179.92 122.52L179.92 122.52Q180.88 119.64 181.90 117.66Q182.92 115.68 184.12 115.44L184.12 115.44Q184.36 115.44 184.60 115.38Q184.84 115.32 185.08 115.32L185.08 115.32Q186.40 115.32 187.48 115.92Q188.56 116.52 188.56 117.72L188.56 117.72Q188.56 118.80 187.78 120.36Q187 121.92 185.80 124.20L185.80 124.20Q183.16 129.72 181.06 134.22Q178.96 138.72 178.72 141.60L178.72 141.60Q178.60 142.08 178.60 142.50Q178.60 142.92 178.60 143.40L178.60 143.40Q178.60 148.20 181.72 148.20L181.72 148.20Q183.64 148.20 186.64 146.10Q189.64 144 192.76 140.94Q195.88 137.88 198.46 135.06Q201.04 132.24 202 130.80L202 130.80Q202.36 130.44 202.72 130.44L202.72 130.44Q203.20 130.44 203.50 130.80Q203.80 131.16 203.56 131.76L203.56 131.76Q202.48 133.80 199.90 136.86Q197.32 139.92 194.14 142.98Q190.96 146.04 187.96 148.20L187.96 148.20Q186.40 149.40 184.06 150.30Q181.72 151.20 179.32 151.20Z"
      fill="#fefbfb"
      stroke="#ffffff"
      stroke-width="2"
      stroke-linecap="round"
      stroke-linejoin="round"
      class="sig-path"
      stroke-dasharray="194"
      stroke-dashoffset="194"
      fill-opacity="0"
    >
      <animate 
        attributeName="stroke-dashoffset" 
        values="194; 194; 0; 0; 194; 194"
        keyTimes="0; 0.188; 0.235; 0.694; 0.741; 1"
        dur="3.6s" 
        repeatCount="indefinite" 
      />
      <animate 
        attributeName="fill-opacity" 
        values="0; 0; 1; 1; 0; 0"
        keyTimes="0; 0.216; 0.299; 0.720; 0.803; 1"
        dur="3.6s" 
        repeatCount="indefinite" 
      />
    </path>

    <!-- Path 6 (L=445) Draw:0.847s Undraw:2.35s -->
    <path
      d="M187.24 190.80L187.24 190.80Q186.16 190.80 186.16 190.08L186.16 190.08Q186.16 189.48 186.40 189L186.40 189Q186.88 188.16 188.56 184.14Q190.24 180.12 192.70 173.94Q195.16 167.76 198.04 160.62Q200.92 153.48 203.68 146.46Q206.44 139.44 208.72 133.68L208.72 133.68Q206.56 134.04 204.88 134.16Q203.20 134.28 202.48 134.28L202.48 134.28Q201.40 134.28 200.32 133.56Q199.24 132.84 199.24 131.64L199.24 131.64Q199.24 130.56 200.68 129.78Q202.12 129 203.86 128.58Q205.60 128.16 206.44 128.16L206.44 128.16Q207.76 128.16 208.42 129.12Q209.08 130.08 209.92 130.08L209.92 130.08L210.16 130.08Q211.48 126.72 212.38 124.50Q213.28 122.28 213.52 121.32L213.52 121.32Q214.48 118.80 216.16 114.84Q217.84 110.88 219.88 106.38Q221.92 101.88 224.14 97.62Q226.36 93.36 228.28 90.24L228.28 90.24Q230.08 87.48 232.54 84.66Q235 81.84 237.94 79.98Q240.88 78.12 244.24 78.12L244.24 78.12Q245.68 78.12 247 78.42Q248.32 78.72 249.52 79.32L249.52 79.32Q253.12 81.36 253.12 85.20L253.12 85.20Q253.12 86.76 252.58 88.62Q252.04 90.48 251.08 92.52L251.08 92.52Q249.52 96 245.98 100.80Q242.44 105.60 237.82 110.76Q233.20 115.92 228.28 120.72Q223.36 125.52 218.80 129.12L218.80 129.12Q221.92 128.88 225.16 128.58Q228.40 128.28 231.64 128.28L231.64 128.28Q232.48 128.28 233.38 128.46Q234.28 128.64 234.28 129L234.28 129Q234.28 129.24 233.74 129.54Q233.20 129.84 231.64 130.32L231.64 130.32Q230.68 130.56 227.80 131.10Q224.92 131.64 221.14 132.12Q217.36 132.60 213.64 133.08L213.64 133.08Q211.96 137.40 209.74 143.34Q207.52 149.28 205.30 155.34Q203.08 161.40 201.28 166.20L201.28 166.20Q199.84 170.40 199.48 172.32Q199.12 174.24 199.12 175.20L199.12 175.20L199.12 176.04Q199.12 176.52 199.06 177Q199 177.48 198.64 178.32L198.64 178.32Q196.48 183.84 195.76 185.82Q195.04 187.80 193.72 188.64L193.72 188.64Q192.76 189.12 190.72 189.96Q188.68 190.80 187.24 190.80ZM215.32 129.36L215.32 129.36Q219.76 126 224.44 121.20Q229.12 116.40 233.56 110.94Q238 105.48 241.66 100.20Q245.32 94.92 247.72 90.84L247.72 90.84Q249.76 87.48 249.76 84.48L249.76 84.48Q249.76 81.24 247.48 81.24L247.48 81.24Q245.56 81.24 242.92 83.40L242.92 83.40Q240.64 85.08 237.46 88.98Q234.28 92.88 231.22 97.62Q228.16 102.36 225.88 106.56L225.88 106.56Q223.24 111.60 221.08 116.22Q218.92 120.84 217.60 123.90Q216.28 126.96 216.04 127.56L216.04 127.56Q215.68 128.28 215.32 129.36Z"
      fill="#fefbfb"
      stroke="#ffffff"
      stroke-width="2"
      stroke-linecap="round"
      stroke-linejoin="round"
      class="sig-path"
      stroke-dasharray="445"
      stroke-dashoffset="445"
      fill-opacity="0"
    >
      <animate 
        attributeName="stroke-dashoffset" 
        values="445; 445; 0; 0; 445; 445"
        keyTimes="0; 0.235; 0.282; 0.653; 0.700; 1"
        dur="3.6s" 
        repeatCount="indefinite" 
      />
      <animate 
        attributeName="fill-opacity" 
        values="0; 0; 1; 1; 0; 0"
        keyTimes="0; 0.263; 0.346; 0.679; 0.762; 1"
        dur="3.6s" 
        repeatCount="indefinite" 
      />
    </path>

    <!-- Path 7 (L=517) Draw:1.01s Undraw:2.20s -->
    <path
      d="M229.72 194.04L229.72 194.04Q228.28 193.68 227.20 193.32L227.20 193.32Q224.92 192.12 223.96 190.62Q223.00 189.12 223.00 187.44L223.00 187.44Q223.00 184.68 224.86 181.50Q226.72 178.32 229.72 174.96L229.72 174.96Q232.72 171.36 237.34 167.64Q241.96 163.92 247.00 160.50Q252.04 157.08 255.88 154.56L255.88 154.56Q257.92 150.36 260.14 145.56Q262.36 140.76 264.40 136.26Q266.44 131.76 267.94 128.04Q269.44 124.32 270.16 122.28L270.16 122.28Q268.24 124.56 265.72 127.98Q263.20 131.40 260.20 135.18Q257.20 138.96 254.02 142.32Q250.84 145.68 247.48 147.78Q244.12 149.88 240.88 149.88L240.88 149.88Q236.08 149.88 234.22 147.42Q232.36 144.96 232.36 141.60L232.36 141.60Q232.36 139.20 233.02 136.80Q233.68 134.40 234.76 132.36L234.76 132.36Q235.48 130.92 237.04 128.52Q238.60 126.12 240.64 123.60Q242.68 121.08 244.78 119.40Q246.88 117.72 248.80 117.72L248.80 117.72Q251.08 117.72 252.28 119.34Q253.48 120.96 252.52 121.56L252.52 121.56Q250.60 122.88 247.78 125.58Q244.96 128.28 242.20 131.76L242.20 131.76Q241.48 132.72 240.46 134.76Q239.44 136.80 238.60 139.14Q237.76 141.48 237.76 143.40L237.76 143.40Q237.76 144.24 238.00 145.02Q238.24 145.80 238.84 146.16L238.84 146.16Q239.80 146.88 241.00 146.88L241.00 146.88Q242.68 146.88 244.78 145.80Q246.88 144.72 248.80 143.04L248.80 143.04Q255.52 136.56 260.80 129.48Q266.08 122.40 271.96 115.44L271.96 115.44Q272.32 114.24 274 114.24L274 114.24Q275.92 114.24 278.02 115.38Q280.12 116.52 279.76 117.24L279.76 117.24Q278.68 119.64 276.94 123.60Q275.20 127.56 273.16 132.12Q271.12 136.68 269.08 141.18Q267.04 145.68 265.36 149.28L265.36 149.28Q266.80 148.56 270.52 145.68Q274.24 142.80 278.68 138.66Q283.12 134.52 286.72 130.08L286.72 130.08Q287.44 129.36 287.80 129.36L287.80 129.36Q288.52 129.36 288.52 130.32L288.52 130.32Q288.52 131.16 287.80 132.24L287.80 132.24Q286 134.64 282.82 137.88Q279.64 141.12 275.98 144.42Q272.32 147.72 268.84 150.42Q265.36 153.12 262.84 154.56L262.84 154.56Q259.12 162.48 255.64 169.50Q252.16 176.52 249.28 180.84L249.28 180.84Q247.36 183.84 244.60 186.96Q241.84 190.08 238.60 192.18Q235.36 194.28 231.76 194.28L231.76 194.28Q231.28 194.28 230.80 194.22Q230.32 194.16 229.72 194.04ZM230.08 191.40L230.08 191.40Q231.04 191.40 232.42 190.80Q233.80 190.20 235.36 188.88L235.36 188.88Q239.92 185.16 243.04 180.18Q246.16 175.20 248.62 169.68Q251.08 164.16 253.60 159.12L253.60 159.12Q248.92 162.60 243.04 167.34Q237.16 172.08 232.36 176.76L232.36 176.76Q229.48 179.64 228.16 182.46Q226.84 185.28 226.84 187.44L226.84 187.44Q226.84 191.40 230.08 191.40Z"
      fill="#fefbfb"
      stroke="#ffffff"
      stroke-width="2"
      stroke-linecap="round"
      stroke-linejoin="round"
      class="sig-path"
      stroke-dasharray="517"
      stroke-dashoffset="517"
      fill-opacity="0"
    >
      <animate 
        attributeName="stroke-dashoffset" 
        values="517; 517; 0; 0; 517; 517"
        keyTimes="0; 0.281; 0.328; 0.611; 0.658; 1"
        dur="3.6s" 
        repeatCount="indefinite" 
      />
      <animate 
        attributeName="fill-opacity" 
        values="0; 0; 1; 1; 0; 0"
        keyTimes="0; 0.309; 0.392; 0.637; 0.720; 1"
        dur="3.6s" 
        repeatCount="indefinite" 
      />
    </path>
    
  </g>
</svg>
